<?xml version="1.0" standalone="no"?>
<!DOCTYPE svg PUBLIC "-//W3C//DTD SVG 20010904//EN"
 "http://www.w3.org/TR/2001/REC-SVG-20010904/DTD/svg10.dtd">
<svg version="1.0" xmlns="http://www.w3.org/2000/svg"
 width="60.000000pt" height="52.000000pt" viewBox="0 0 60.000000 52.000000"
 preserveAspectRatio="xMidYMid meet">
<metadata>
Created by potrace 1.16, written by Peter Selinger 2001-2019
</metadata>
<g transform="translate(0.000000,52.000000) scale(0.100000,-0.100000)"
fill="#000000" stroke="none">
<path d="M0 510 c0 -5 10 -10 23 -10 21 -1 21 -1 3 -15 -31 -23 -12 -28 45
-11 67 20 72 20 60 -3 -6 -10 -7 -21 -4 -25 3 -3 0 -6 -8 -6 -12 0 -12 -2 0
-9 10 -7 7 -9 -12 -8 -28 2 -38 17 -12 17 8 0 15 4 15 8 0 4 -9 8 -19 8 -11 0
-18 -3 -15 -7 2 -4 -2 -9 -9 -12 -10 -4 -13 -31 -12 -106 2 -128 3 -130 16
-111 9 12 10 12 5 -3 -3 -10 -6 -21 -6 -23 0 -3 -4 -3 -9 0 -5 4 -8 -12 -6
-34 4 -46 3 -46 -31 -23 -25 16 -26 16 -22 -8 2 -19 9 -24 31 -23 22 1 29 -4
34 -25 3 -14 10 -31 15 -38 9 -11 38 -7 48 8 3 4 19 8 35 10 17 2 39 10 50 19
18 14 19 14 7 -2 -12 -15 -10 -17 17 -16 19 1 28 5 24 12 -4 6 0 5 9 -1 8 -7
18 -10 21 -7 3 4 4 -6 1 -20 -4 -23 -3 -25 10 -14 7 7 12 16 9 20 -2 5 1 8 6
8 6 0 12 -7 12 -15 1 -8 2 -20 3 -27 0 -6 7 -13 15 -16 8 -3 11 0 8 5 -7 11
36 10 68 -2 16 -6 17 -5 5 5 -13 9 -12 11 5 9 39 -3 51 0 37 10 -11 7 -10 9 3
14 9 4 13 3 10 -3 -11 -17 7 -11 21 8 12 16 13 15 9 -5 -2 -13 0 -23 6 -23 5
0 9 19 9 41 0 36 -2 40 -15 29 -13 -11 -14 -10 -10 1 3 8 24 23 48 35 41 19
42 22 45 72 3 46 1 52 -16 52 -27 0 -36 29 -16 51 16 18 16 19 -9 19 -27 0
-30 6 -28 45 0 11 -2 14 -5 8 -9 -20 -20 -15 -20 7 0 11 5 19 11 16 6 -2 11
10 11 28 0 20 -5 33 -13 33 -17 0 -17 -17 0 -18 6 -1 -1 -4 -18 -8 -33 -8 -58
-3 -50 9 3 5 15 6 28 3 12 -3 19 -3 16 1 -10 11 -69 14 -62 3 4 -6 1 -7 -8 -1
-21 13 -49 15 -49 4 0 -6 3 -9 8 -8 4 0 18 -4 32 -10 25 -11 25 -11 -5 -8 -16
3 -33 5 -37 5 -5 1 -8 9 -8 18 0 9 -3 13 -7 9 -5 -4 -8 -13 -8 -19 0 -16 -28
-15 -31 1 -1 7 0 8 3 2 7 -15 20 -12 20 5 0 9 -9 14 -24 13 -14 -2 -22 -7 -19
-15 3 -7 1 -15 -5 -18 -5 -4 -6 -12 -2 -18 3 -7 -2 -5 -13 4 -10 9 -29 15 -41
14 -12 -1 -20 2 -17 7 4 5 12 7 19 4 7 -2 18 1 25 7 10 9 11 9 6 0 -3 -6 -2
-14 4 -18 6 -3 10 3 10 15 0 16 -4 20 -15 16 -9 -3 -24 3 -35 14 -20 20 -20
20 63 21 45 1 74 3 64 6 -9 2 -15 9 -12 14 4 5 -64 9 -169 9 -111 0 -176 -4
-176 -10z"/>
</g>
</svg>
