<?xml version="1.0" standalone="no"?>
<!DOCTYPE svg PUBLIC "-//W3C//DTD SVG 20010904//EN"
 "http://www.w3.org/TR/2001/REC-SVG-20010904/DTD/svg10.dtd">
<svg version="1.0" xmlns="http://www.w3.org/2000/svg"
 width="53.000000pt" height="54.000000pt" viewBox="0 0 53.000000 54.000000"
 preserveAspectRatio="xMidYMid meet">
<metadata>
Created by potrace 1.16, written by Peter Selinger 2001-2019
</metadata>
<g transform="translate(0.000000,54.000000) scale(0.100000,-0.100000)"
fill="#000000" stroke="none">
<path d="M0 500 c0 -37 1 -39 19 -28 15 9 23 9 35 -1 20 -17 21 -42 1 -35 -10
4 -15 0 -15 -15 0 -12 -6 -21 -14 -21 -18 0 -29 -16 -21 -30 7 -12 50 6 88 37
54 43 57 37 50 -107 -4 -93 -3 -130 5 -130 6 0 17 -10 23 -22 11 -21 11 -22
-6 -8 -10 8 -28 13 -41 12 -24 -3 -24 -3 -24 107 0 100 2 112 20 123 20 13 28
38 11 38 -5 0 -22 -11 -38 -24 -15 -13 -38 -26 -50 -30 -13 -4 -23 -13 -23
-19 0 -7 -4 -6 -10 3 -8 13 -10 12 -10 -2 0 -10 5 -18 10 -18 6 0 11 -17 11
-37 l2 -38 7 40 c6 31 7 21 9 -47 1 -67 -2 -88 -12 -88 -8 0 -14 7 -14 15 0 8
4 12 9 9 4 -3 8 0 8 5 0 6 -4 11 -9 11 -5 0 -12 10 -14 22 -2 13 -5 4 -6 -20
-1 -45 12 -66 45 -75 16 -4 15 -5 -5 -6 -17 -1 -22 -5 -17 -17 5 -14 4 -15 -8
-5 -11 9 -13 7 -13 -14 0 -25 3 -26 57 -16 3 1 -2 6 -10 11 -19 13 74 12 110
-1 19 -6 15 -7 -15 -3 -45 7 -43 -2 4 -16 24 -7 33 -5 40 8 12 20 -7 39 -45
45 -26 4 -25 4 7 6 25 1 39 -4 43 -15 3 -8 11 -12 17 -8 8 5 8 1 0 -14 -14
-26 -14 -42 0 -42 6 0 16 14 22 30 l11 30 86 -2 85 -2 -80 -3 c-70 -4 -94 -12
-95 -33 0 -3 38 -4 85 -2 57 2 85 7 85 15 0 7 4 6 9 -2 6 -9 6 -22 1 -32 -5
-9 -6 -20 -2 -24 4 -5 2 -5 -5 -1 -7 4 -10 13 -6 21 3 10 -1 15 -12 15 -9 0
-13 -4 -10 -10 4 -6 -12 -10 -40 -10 -28 0 -44 4 -40 10 4 6 -7 10 -27 10 -22
0 -29 -3 -19 -9 9 -6 10 -11 2 -15 -6 -4 -11 -2 -11 3 0 6 -7 11 -15 11 -8 0
-15 -4 -15 -10 0 -5 -8 -7 -17 -3 -16 5 -16 4 1 -13 13 -14 20 -15 23 -6 3 6
9 12 14 12 6 0 7 -6 3 -12 -6 -11 -4 -11 7 0 16 14 33 16 24 2 -3 -5 1 -10 9
-10 8 0 17 4 21 9 3 6 25 8 48 5 23 -2 72 -6 110 -9 l67 -5 0 62 c-1 62 -1 62
-16 36 -17 -32 -31 -35 -50 -11 -13 17 -14 17 -8 -2 4 -15 4 -17 -4 -6 -12 16
-1 40 36 82 22 24 23 33 18 100 -12 166 -15 176 -56 209 -21 16 -48 30 -59 30
-12 0 -33 7 -46 16 -23 15 -27 15 -50 0 -13 -9 -32 -16 -40 -16 -9 0 -37 -14
-63 -31 -41 -27 -44 -27 -19 -5 23 21 25 27 13 32 -9 3 -16 15 -16 25 0 17 -8
19 -85 19 l-85 0 0 -40z m290 -43 c13 -15 23 -17 55 -11 22 4 34 9 28 11 -7 3
-13 9 -13 14 0 17 31 9 65 -16 27 -21 34 -34 37 -71 3 -41 1 -45 -17 -40 -11
3 -36 6 -55 7 -32 2 -31 2 10 8 44 6 45 7 45 41 l0 35 -55 0 -55 0 0 -38 c0
-26 -4 -37 -15 -37 -11 0 -15 11 -15 37 0 36 -2 38 -34 41 -19 2 -45 1 -58 -3
-20 -5 -23 -11 -22 -43 l3 -37 45 2 c48 2 42 -1 -21 -12 -25 -4 -38 -11 -38
-22 0 -11 6 -14 23 -10 62 16 131 18 196 7 39 -6 69 -16 65 -21 -3 -5 -2 -14
2 -21 17 -27 9 -83 -16 -115 l-25 -33 -110 2 c-86 1 -99 3 -60 8 28 4 47 8 43
8 -5 1 -11 1 -14 0 -3 -2 -10 6 -16 16 -8 14 -8 21 -1 23 6 2 9 16 7 32 -3 23
2 30 29 42 21 10 45 13 70 9 20 -4 35 -5 32 -2 -3 3 0 11 6 18 13 16 3 22 -49
30 -29 4 -42 3 -42 -5 0 -6 -5 -11 -11 -11 -5 0 -7 5 -4 10 3 6 -3 10 -14 10
-11 0 -23 -4 -26 -10 -3 -5 -1 -10 5 -10 6 0 8 -5 5 -11 -5 -7 -11 -5 -18 4
-8 10 -23 13 -45 10 l-33 -5 3 -56 c2 -39 8 -57 18 -60 12 -4 13 -2 3 9 -12
12 -19 69 -9 69 2 0 13 3 23 6 17 5 17 5 1 -6 -24 -15 -23 -53 2 -75 22 -20
26 -35 9 -35 -5 0 -8 4 -4 9 3 5 1 12 -5 16 -5 3 -10 -2 -10 -11 0 -16 -2 -15
-21 2 -21 18 -21 25 -15 139 5 109 8 122 29 137 12 10 28 16 34 13 7 -2 12 -1
12 3 -4 27 17 27 41 -1z"/>
</g>
</svg>
